<svg viewBox="0 0 429.82 291.82" xmlns="http://www.w3.org/2000/svg">
    <path fill="rgb(129, 140, 248)" d="M103,2.51C100.68,3.65,76.49,28.3,48.88,57.29,16.24,91.29-.88,110.92,0,113c1.83,5,425.42,5.25,429.53.23,2.05-2.28-7.76-13.69-46.56-54.55-26.93-28.3-51.35-53.17-54.09-55C324.35.46,310.2,0,215.25,0,146.56,0,105.48.91,103,2.51Z"/>
    <path fill="rgb(129, 140, 248)" d="M92.24,144.7c-1.83,2.05-2.51,23.73-2.06,74.63.92,85.35-.22,83.07,25.57,55.23,29-31,58.42-44.51,98.36-44.73,43.59-.23,79.43,16.66,106.13,50.43,7.07,8.9,10.95,11.87,14.6,11.41,4.8-.68,4.8-1.36,5.48-72.34.46-50.9-.23-72.58-2.05-74.63C334.39,139.9,96.12,139.9,92.24,144.7Z"/>
</svg>
